G75*
%MOIN*%
%OFA0B0*%
%FSLAX25Y25*%
%IPPOS*%
%LPD*%
%AMOC8*
5,1,8,0,0,1.08239X$1,22.5*
%
%ADD10R,0.01102X0.01772*%
%ADD11R,0.11230X0.06899*%
%ADD12R,0.04931X0.04537*%
%ADD13R,0.04537X0.04931*%
%ADD14C,0.01361*%
%ADD15R,0.06899X0.07687*%
%ADD16R,0.02962X0.09261*%
%ADD17C,0.07000*%
%ADD18C,0.08000*%
%ADD19R,0.07687X0.07687*%
%ADD20C,0.07687*%
%ADD21R,0.06112X0.01978*%
%ADD22R,0.08080X0.07687*%
%ADD23R,0.08080X0.08080*%
%ADD24R,0.18710X0.04537*%
%ADD25R,0.13986X0.06899*%
%ADD26R,0.06506X0.14773*%
%ADD27R,0.04143X0.03750*%
%ADD28R,0.03750X0.04143*%
%ADD29R,0.05324X0.02962*%
%ADD30R,0.08080X0.06112*%
%ADD31R,0.06112X0.07687*%
%ADD32R,0.06506X0.03356*%
%ADD33R,0.01584X0.02569*%
%ADD34R,0.10049X0.03907*%
%ADD35R,0.05718X0.08080*%
%ADD36R,0.07687X0.03356*%
%ADD37R,0.01584X0.03356*%
%ADD38R,0.03356X0.01584*%
%ADD39R,0.21072X0.13198*%
%ADD40R,0.02000X0.03000*%
%ADD41R,0.06506X0.01702*%
%ADD42R,0.01702X0.06506*%
%ADD43R,0.12411X0.05324*%
%ADD44R,0.01387X0.03946*%
%ADD45R,0.03946X0.01387*%
%ADD46R,0.11033X0.11033*%
%ADD47R,0.16600X0.06600*%
%ADD48R,0.16600X0.05600*%
%ADD49R,0.11624X0.10049*%
%ADD50C,0.08600*%
%ADD51R,0.04734X0.03159*%
%ADD52R,0.04537X0.08474*%
%ADD53OC8,0.04169*%
%ADD54OC8,0.06506*%
%ADD55OC8,0.19350*%
D10*
X0113421Y0111976D03*
D11*
X0351256Y0113738D03*
X0351256Y0124762D03*
X0386256Y0124762D03*
X0386256Y0113738D03*
D12*
X0395409Y0111750D03*
X0402102Y0111750D03*
X0411256Y0118404D03*
X0420006Y0118404D03*
X0420006Y0125096D03*
X0411256Y0125096D03*
X0407506Y0137154D03*
X0407506Y0143846D03*
X0373756Y0143846D03*
X0373756Y0137154D03*
X0338756Y0140904D03*
X0338756Y0147596D03*
X0328131Y0135409D03*
X0319381Y0135409D03*
X0319381Y0128716D03*
X0328131Y0128716D03*
X0310631Y0128716D03*
X0310631Y0135409D03*
X0360409Y0111750D03*
X0367102Y0111750D03*
X0340006Y0103846D03*
X0340006Y0097154D03*
X0366256Y0078846D03*
X0376256Y0078846D03*
X0376256Y0072154D03*
X0366256Y0072154D03*
X0296881Y0075279D03*
X0288131Y0075279D03*
X0288131Y0081971D03*
X0296881Y0081971D03*
X0207102Y0118000D03*
X0200409Y0118000D03*
X0231034Y0140500D03*
X0237727Y0140500D03*
X0237727Y0147375D03*
X0231034Y0147375D03*
X0207102Y0143000D03*
X0200409Y0143000D03*
X0102506Y0126971D03*
X0092506Y0126971D03*
X0092506Y0120279D03*
X0102506Y0120279D03*
X0086256Y0114471D03*
X0086256Y0107779D03*
X0072506Y0119654D03*
X0061256Y0119654D03*
X0061256Y0126346D03*
X0072506Y0126346D03*
X0060006Y0142154D03*
X0060006Y0148846D03*
X0056256Y0159029D03*
X0056256Y0165721D03*
X0431659Y0017375D03*
X0438352Y0017375D03*
D13*
X0285227Y0104250D03*
X0278534Y0104250D03*
X0270852Y0126125D03*
X0264159Y0126125D03*
X0216881Y0114471D03*
X0216881Y0107779D03*
X0140006Y0073846D03*
X0131256Y0073846D03*
X0121256Y0073846D03*
X0112506Y0073846D03*
X0112506Y0067154D03*
X0103756Y0067596D03*
X0103756Y0060904D03*
X0121256Y0067154D03*
X0131256Y0067154D03*
X0140006Y0067154D03*
X0148756Y0066971D03*
X0148756Y0060279D03*
X0039602Y0016125D03*
X0032909Y0016125D03*
X0032909Y0120500D03*
X0039602Y0120500D03*
X0039602Y0130500D03*
X0032909Y0130500D03*
X0067284Y0138625D03*
X0073977Y0138625D03*
X0050631Y0147154D03*
X0050631Y0153846D03*
X0110006Y0155721D03*
X0110006Y0149029D03*
X0116659Y0148000D03*
X0123352Y0148000D03*
X0129159Y0148000D03*
X0135852Y0148000D03*
X0133352Y0136750D03*
X0126659Y0136750D03*
X0120852Y0136750D03*
X0114159Y0136750D03*
D14*
X0309043Y0124916D02*
X0312219Y0124916D01*
X0312219Y0121740D01*
X0309043Y0121740D01*
X0309043Y0124916D01*
X0309043Y0123100D02*
X0312219Y0123100D01*
X0312219Y0124460D02*
X0309043Y0124460D01*
X0317793Y0124916D02*
X0320969Y0124916D01*
X0320969Y0121740D01*
X0317793Y0121740D01*
X0317793Y0124916D01*
X0317793Y0123100D02*
X0320969Y0123100D01*
X0320969Y0124460D02*
X0317793Y0124460D01*
X0326543Y0124916D02*
X0329719Y0124916D01*
X0329719Y0121740D01*
X0326543Y0121740D01*
X0326543Y0124916D01*
X0326543Y0123100D02*
X0329719Y0123100D01*
X0329719Y0124460D02*
X0326543Y0124460D01*
X0326543Y0118010D02*
X0329719Y0118010D01*
X0329719Y0114834D01*
X0326543Y0114834D01*
X0326543Y0118010D01*
X0326543Y0116194D02*
X0329719Y0116194D01*
X0329719Y0117554D02*
X0326543Y0117554D01*
X0320969Y0118010D02*
X0317793Y0118010D01*
X0320969Y0118010D02*
X0320969Y0114834D01*
X0317793Y0114834D01*
X0317793Y0118010D01*
X0317793Y0116194D02*
X0320969Y0116194D01*
X0320969Y0117554D02*
X0317793Y0117554D01*
X0312219Y0118010D02*
X0309043Y0118010D01*
X0312219Y0118010D02*
X0312219Y0114834D01*
X0309043Y0114834D01*
X0309043Y0118010D01*
X0309043Y0116194D02*
X0312219Y0116194D01*
X0312219Y0117554D02*
X0309043Y0117554D01*
D15*
X0309494Y0093000D03*
X0320518Y0093000D03*
X0316768Y0144250D03*
X0305744Y0144250D03*
D16*
X0278756Y0070736D03*
X0273756Y0070736D03*
X0268756Y0070736D03*
X0263756Y0070736D03*
X0263756Y0050264D03*
X0268756Y0050264D03*
X0273756Y0050264D03*
X0278756Y0050264D03*
D17*
X0098756Y0150500D03*
X0088756Y0150500D03*
X0078756Y0150500D03*
X0078756Y0160500D03*
X0088756Y0160500D03*
X0098756Y0160500D03*
D18*
X0098756Y0175500D03*
X0108756Y0175500D03*
X0088756Y0175500D03*
X0078756Y0175500D03*
X0068756Y0175500D03*
X0058756Y0175500D03*
X0346256Y0020500D03*
X0356256Y0020500D03*
X0366256Y0020500D03*
X0376256Y0020500D03*
D19*
X0206256Y0025500D03*
X0061256Y0025500D03*
X0251256Y0165500D03*
X0276256Y0165500D03*
D20*
X0290035Y0165500D03*
X0303815Y0165500D03*
X0317594Y0165500D03*
X0331374Y0165500D03*
X0345154Y0165500D03*
X0358933Y0165500D03*
X0372713Y0165500D03*
X0386492Y0165500D03*
X0400272Y0165500D03*
X0237476Y0165500D03*
X0223697Y0165500D03*
X0209917Y0165500D03*
X0196138Y0165500D03*
X0182358Y0165500D03*
X0168579Y0165500D03*
X0154799Y0165500D03*
X0141020Y0165500D03*
X0127240Y0165500D03*
X0130154Y0025500D03*
X0116374Y0025500D03*
X0102594Y0025500D03*
X0088815Y0025500D03*
X0075035Y0025500D03*
X0143933Y0025500D03*
X0157713Y0025500D03*
X0171492Y0025500D03*
X0185272Y0025500D03*
X0220035Y0025500D03*
X0233815Y0025500D03*
X0247594Y0025500D03*
X0261374Y0025500D03*
X0275154Y0025500D03*
X0288933Y0025500D03*
X0302713Y0025500D03*
X0316492Y0025500D03*
X0330272Y0025500D03*
D21*
X0023564Y0125382D03*
X0023564Y0127941D03*
X0023564Y0130500D03*
X0023564Y0133059D03*
X0023564Y0135618D03*
D22*
X0013131Y0146248D03*
X0013131Y0114752D03*
D23*
X0013131Y0125500D03*
X0013131Y0135500D03*
D24*
X0460751Y0110687D03*
X0460751Y0102813D03*
D25*
X0481224Y0093364D03*
X0481224Y0120136D03*
D26*
X0395783Y0140500D03*
X0386728Y0140500D03*
X0360783Y0140500D03*
X0351728Y0140500D03*
D27*
X0331443Y0140510D03*
X0323175Y0144250D03*
X0331443Y0147990D03*
X0332693Y0104240D03*
X0324425Y0100500D03*
X0332693Y0096760D03*
X0101837Y0111125D03*
X0093569Y0107385D03*
X0093569Y0114865D03*
X0087462Y0123625D03*
X0079194Y0127365D03*
X0079194Y0119885D03*
D28*
X0064996Y0114437D03*
X0057516Y0114437D03*
X0061256Y0106169D03*
D29*
X0290232Y0063000D03*
X0290232Y0058000D03*
X0290232Y0053000D03*
X0290232Y0048000D03*
X0312280Y0048000D03*
X0312280Y0053000D03*
X0312280Y0058000D03*
X0312280Y0063000D03*
D30*
X0029199Y0101425D03*
X0025656Y0049457D03*
D31*
X0080774Y0071504D03*
X0080774Y0095126D03*
D32*
X0040616Y0093551D03*
X0040616Y0097882D03*
X0039041Y0089220D03*
X0040616Y0084890D03*
X0039041Y0080559D03*
X0040616Y0076228D03*
X0042191Y0071898D03*
X0040616Y0067567D03*
D33*
X0361069Y0119260D03*
X0363037Y0119260D03*
X0365006Y0119260D03*
X0366974Y0119260D03*
X0368943Y0119260D03*
X0368943Y0126740D03*
X0366974Y0126740D03*
X0365006Y0126740D03*
X0363037Y0126740D03*
X0361069Y0126740D03*
X0396069Y0126740D03*
X0398037Y0126740D03*
X0400006Y0126740D03*
X0401974Y0126740D03*
X0403943Y0126740D03*
X0403943Y0119260D03*
X0401974Y0119260D03*
X0400006Y0119260D03*
X0398037Y0119260D03*
X0396069Y0119260D03*
D34*
X0400006Y0123000D03*
X0365006Y0123000D03*
D35*
X0215833Y0124201D03*
X0194179Y0124201D03*
X0194179Y0136799D03*
X0215833Y0136799D03*
D36*
X0352555Y0065500D03*
X0352555Y0061169D03*
X0352555Y0056839D03*
X0352555Y0052508D03*
X0352555Y0048177D03*
X0352555Y0043846D03*
X0352555Y0039516D03*
X0352555Y0035185D03*
X0352555Y0030854D03*
X0389957Y0030500D03*
X0389957Y0034831D03*
X0389957Y0039161D03*
X0389957Y0043492D03*
X0389957Y0047823D03*
X0389957Y0052154D03*
X0389957Y0056484D03*
X0389957Y0060815D03*
X0389957Y0065146D03*
D37*
X0137083Y0111051D03*
X0135114Y0111051D03*
X0133146Y0111051D03*
X0131177Y0111051D03*
X0129209Y0111051D03*
X0127240Y0111051D03*
X0125272Y0111051D03*
X0123303Y0111051D03*
X0121335Y0111051D03*
X0119366Y0111051D03*
X0117398Y0111051D03*
X0115429Y0111051D03*
X0115429Y0129949D03*
X0117398Y0129949D03*
X0119366Y0129949D03*
X0121335Y0129949D03*
X0123303Y0129949D03*
X0125272Y0129949D03*
X0127240Y0129949D03*
X0129209Y0129949D03*
X0131177Y0129949D03*
X0133146Y0129949D03*
X0135114Y0129949D03*
X0137083Y0129949D03*
D38*
X0139642Y0126406D03*
X0139642Y0124437D03*
X0139642Y0122469D03*
X0139642Y0120500D03*
X0139642Y0118531D03*
X0139642Y0116563D03*
X0139642Y0114594D03*
X0112870Y0114594D03*
X0112870Y0116563D03*
X0112870Y0118531D03*
X0112870Y0120500D03*
X0112870Y0122469D03*
X0112870Y0124437D03*
X0112870Y0126406D03*
D39*
X0126256Y0120500D03*
D40*
X0113456Y0112000D03*
D41*
X0224524Y0112547D03*
X0224524Y0110579D03*
X0224524Y0108610D03*
X0224524Y0106642D03*
X0224524Y0104673D03*
X0224524Y0114516D03*
X0224524Y0116484D03*
X0224524Y0118453D03*
X0224524Y0120421D03*
X0224524Y0122390D03*
X0224524Y0124358D03*
X0224524Y0126327D03*
X0257988Y0126327D03*
X0257988Y0124358D03*
X0257988Y0122390D03*
X0257988Y0120421D03*
X0257988Y0118453D03*
X0257988Y0116484D03*
X0257988Y0114516D03*
X0257988Y0112547D03*
X0257988Y0110579D03*
X0257988Y0108610D03*
X0257988Y0106642D03*
X0257988Y0104673D03*
D42*
X0252083Y0098768D03*
X0250114Y0098768D03*
X0248146Y0098768D03*
X0246177Y0098768D03*
X0244209Y0098768D03*
X0242240Y0098768D03*
X0240272Y0098768D03*
X0238303Y0098768D03*
X0236335Y0098768D03*
X0234366Y0098768D03*
X0232398Y0098768D03*
X0230429Y0098768D03*
X0230429Y0132232D03*
X0232398Y0132232D03*
X0234366Y0132232D03*
X0236335Y0132232D03*
X0238303Y0132232D03*
X0240272Y0132232D03*
X0242240Y0132232D03*
X0244209Y0132232D03*
X0246177Y0132232D03*
X0248146Y0132232D03*
X0250114Y0132232D03*
X0252083Y0132232D03*
D43*
X0405478Y0079122D03*
X0405478Y0071248D03*
X0405478Y0063374D03*
X0405478Y0055500D03*
X0405478Y0047626D03*
X0405478Y0039752D03*
X0405478Y0031878D03*
X0464533Y0031878D03*
X0464533Y0039752D03*
X0464533Y0047626D03*
X0464533Y0055500D03*
X0464533Y0063374D03*
X0464533Y0071248D03*
X0464533Y0079122D03*
D44*
X0290980Y0112724D03*
X0289406Y0112724D03*
X0287831Y0112724D03*
X0286256Y0112724D03*
X0284681Y0112724D03*
X0283106Y0112724D03*
X0281531Y0112724D03*
X0281531Y0128276D03*
X0283106Y0128276D03*
X0284681Y0128276D03*
X0286256Y0128276D03*
X0287831Y0128276D03*
X0289406Y0128276D03*
X0290980Y0128276D03*
D45*
X0294031Y0125224D03*
X0294031Y0123650D03*
X0294031Y0122075D03*
X0294031Y0120500D03*
X0294031Y0118925D03*
X0294031Y0117350D03*
X0294031Y0115776D03*
X0278480Y0115776D03*
X0278480Y0117350D03*
X0278480Y0118925D03*
X0278480Y0120500D03*
X0278480Y0122075D03*
X0278480Y0123650D03*
X0278480Y0125224D03*
D46*
X0286256Y0120500D03*
D47*
X0479506Y0040500D03*
X0479506Y0020500D03*
D48*
X0479506Y0030500D03*
D49*
X0465318Y0128059D03*
X0441303Y0128059D03*
X0441303Y0172941D03*
X0465318Y0172941D03*
D50*
X0465318Y0150500D03*
X0447318Y0150500D03*
D51*
X0046925Y0038512D03*
X0030587Y0038512D03*
X0030587Y0027488D03*
X0046925Y0027488D03*
X0043175Y0170613D03*
X0026837Y0170613D03*
X0026837Y0181637D03*
X0043175Y0181637D03*
D52*
X0116256Y0096996D03*
X0136256Y0096996D03*
X0156256Y0096996D03*
X0146256Y0084004D03*
X0126256Y0084004D03*
X0106256Y0084004D03*
X0116256Y0056996D03*
X0136256Y0056996D03*
X0156256Y0056996D03*
X0146256Y0044004D03*
X0126256Y0044004D03*
X0106256Y0044004D03*
D53*
X0026256Y0016125D03*
X0046256Y0016125D03*
X0091756Y0070500D03*
X0086256Y0075500D03*
X0086256Y0080500D03*
X0088756Y0084250D03*
X0095631Y0086750D03*
X0091881Y0089875D03*
X0102506Y0096125D03*
X0099394Y0099816D03*
X0056256Y0105500D03*
X0066881Y0125500D03*
X0096568Y0135500D03*
X0102506Y0139250D03*
X0110006Y0141750D03*
X0104381Y0132375D03*
X0070006Y0148938D03*
X0066256Y0160500D03*
X0113756Y0161125D03*
X0215006Y0156750D03*
X0215395Y0161530D03*
X0253343Y0143025D03*
X0251881Y0138625D03*
X0245631Y0139563D03*
X0266726Y0138470D03*
X0267506Y0143000D03*
X0270006Y0146750D03*
X0275006Y0146750D03*
X0286256Y0139250D03*
X0288131Y0134250D03*
X0294381Y0131125D03*
X0298756Y0128000D03*
X0301881Y0124816D03*
X0305631Y0121750D03*
X0300631Y0116750D03*
X0278131Y0111437D03*
X0268131Y0110187D03*
X0271509Y0105500D03*
X0279159Y0097687D03*
X0291881Y0098000D03*
X0313131Y0103625D03*
X0320943Y0105187D03*
X0336256Y0088937D03*
X0280006Y0086437D03*
X0256256Y0080500D03*
X0245599Y0083313D03*
X0248865Y0086625D03*
X0256256Y0093000D03*
X0255898Y0098437D03*
X0248131Y0104875D03*
X0250006Y0109250D03*
X0247193Y0116125D03*
X0248131Y0120500D03*
X0237053Y0118625D03*
X0237053Y0125500D03*
X0245324Y0126437D03*
X0264784Y0124875D03*
X0268131Y0121125D03*
X0275631Y0128625D03*
X0278756Y0131750D03*
X0281256Y0135500D03*
X0304381Y0135500D03*
X0334832Y0135500D03*
X0301256Y0155419D03*
X0226256Y0140500D03*
X0166256Y0115500D03*
X0161363Y0115607D03*
X0193756Y0110500D03*
X0204693Y0093937D03*
X0241884Y0076817D03*
X0245631Y0074250D03*
X0251256Y0074131D03*
X0256881Y0073183D03*
X0243756Y0065500D03*
X0236256Y0065500D03*
X0250006Y0061750D03*
X0255006Y0061750D03*
X0231256Y0075500D03*
X0226256Y0075500D03*
X0300006Y0054875D03*
X0337506Y0058625D03*
X0362506Y0040500D03*
X0416976Y0063374D03*
X0416976Y0071248D03*
X0416976Y0079122D03*
X0398788Y0085500D03*
X0392506Y0076750D03*
X0443756Y0017375D03*
X0148131Y0072375D03*
X0105631Y0072375D03*
X0039041Y0080559D03*
X0386256Y0183000D03*
D54*
X0296256Y0144250D03*
X0341256Y0125500D03*
X0376256Y0125500D03*
X0373756Y0111750D03*
X0366256Y0105500D03*
X0352506Y0101750D03*
X0300631Y0098937D03*
X0216256Y0060500D03*
X0202506Y0058000D03*
X0181256Y0110500D03*
X0171256Y0110500D03*
X0120631Y0169875D03*
X0132506Y0178000D03*
X0409068Y0111750D03*
X0453443Y0127060D03*
X0442132Y0047626D03*
X0436256Y0025500D03*
D55*
X0481256Y0177375D03*
X0011256Y0177375D03*
X0011256Y0020500D03*
M02*
