G75*
%MOIN*%
%OFA0B0*%
%FSLAX25Y25*%
%IPPOS*%
%LPD*%
%AMOC8*
5,1,8,0,0,1.08239X$1,22.5*
%
%ADD10R,0.10000X0.20000*%
%ADD11C,0.40000*%
%ADD12C,0.06400*%
%ADD13C,0.07400*%
%ADD14R,0.07087X0.07087*%
%ADD15C,0.07087*%
%ADD16R,0.16000X0.06000*%
%ADD17OC8,0.03569*%
%ADD18C,0.01200*%
%ADD19OC8,0.05906*%
%ADD20C,0.02400*%
%ADD21C,0.04000*%
%ADD22C,0.01600*%
%ADD23C,0.01000*%
%ADD24C,0.05000*%
%ADD25C,0.03200*%
%ADD26OC8,0.18750*%
D10*
X0277506Y0058625D03*
X0337506Y0058625D03*
D11*
X0307506Y0058625D03*
D12*
X0098756Y0150500D03*
X0088756Y0150500D03*
X0078756Y0150500D03*
X0078756Y0160500D03*
X0088756Y0160500D03*
X0098756Y0160500D03*
D13*
X0098756Y0175500D03*
X0108756Y0175500D03*
X0088756Y0175500D03*
X0078756Y0175500D03*
X0068756Y0175500D03*
X0058756Y0175500D03*
X0346256Y0020500D03*
X0356256Y0020500D03*
X0366256Y0020500D03*
X0376256Y0020500D03*
D14*
X0206256Y0025500D03*
X0061256Y0025500D03*
X0251256Y0165500D03*
X0276256Y0165500D03*
D15*
X0290035Y0165500D03*
X0303815Y0165500D03*
X0317594Y0165500D03*
X0331374Y0165500D03*
X0345154Y0165500D03*
X0358933Y0165500D03*
X0372713Y0165500D03*
X0386492Y0165500D03*
X0400272Y0165500D03*
X0237476Y0165500D03*
X0223697Y0165500D03*
X0209917Y0165500D03*
X0196138Y0165500D03*
X0182358Y0165500D03*
X0168579Y0165500D03*
X0154799Y0165500D03*
X0141020Y0165500D03*
X0127240Y0165500D03*
X0130154Y0025500D03*
X0116374Y0025500D03*
X0102594Y0025500D03*
X0088815Y0025500D03*
X0075035Y0025500D03*
X0143933Y0025500D03*
X0157713Y0025500D03*
X0171492Y0025500D03*
X0185272Y0025500D03*
X0220035Y0025500D03*
X0233815Y0025500D03*
X0247594Y0025500D03*
X0261374Y0025500D03*
X0275154Y0025500D03*
X0288933Y0025500D03*
X0302713Y0025500D03*
X0316492Y0025500D03*
X0330272Y0025500D03*
D16*
X0479506Y0020500D03*
X0479506Y0040500D03*
D17*
X0026256Y0016125D03*
X0046256Y0016125D03*
X0091756Y0070500D03*
X0086256Y0075500D03*
X0086256Y0080500D03*
X0088756Y0084250D03*
X0095631Y0086750D03*
X0091881Y0089875D03*
X0102506Y0096125D03*
X0099394Y0099816D03*
X0056256Y0105500D03*
X0066881Y0125500D03*
X0096568Y0135500D03*
X0102506Y0139250D03*
X0110006Y0141750D03*
X0104381Y0132375D03*
X0070006Y0148938D03*
X0066256Y0160500D03*
X0113756Y0161125D03*
X0215006Y0156750D03*
X0215395Y0161530D03*
X0253343Y0143025D03*
X0251881Y0138625D03*
X0245631Y0139563D03*
X0266726Y0138470D03*
X0267506Y0143000D03*
X0270006Y0146750D03*
X0275006Y0146750D03*
X0286256Y0139250D03*
X0288131Y0134250D03*
X0294381Y0131125D03*
X0298756Y0128000D03*
X0301881Y0124816D03*
X0305631Y0121750D03*
X0300631Y0116750D03*
X0278131Y0111437D03*
X0268131Y0110187D03*
X0271509Y0105500D03*
X0279159Y0097687D03*
X0291881Y0098000D03*
X0313131Y0103625D03*
X0320943Y0105187D03*
X0336256Y0088937D03*
X0280006Y0086437D03*
X0256256Y0080500D03*
X0245599Y0083313D03*
X0248865Y0086625D03*
X0256256Y0093000D03*
X0255898Y0098437D03*
X0248131Y0104875D03*
X0250006Y0109250D03*
X0247193Y0116125D03*
X0248131Y0120500D03*
X0237053Y0118625D03*
X0237053Y0125500D03*
X0245324Y0126437D03*
X0264784Y0124875D03*
X0268131Y0121125D03*
X0275631Y0128625D03*
X0278756Y0131750D03*
X0281256Y0135500D03*
X0304381Y0135500D03*
X0334832Y0135500D03*
X0301256Y0155419D03*
X0226256Y0140500D03*
X0166256Y0115500D03*
X0161363Y0115607D03*
X0193756Y0110500D03*
X0204693Y0093937D03*
X0241884Y0076817D03*
X0245631Y0074250D03*
X0251256Y0074131D03*
X0256881Y0073183D03*
X0243756Y0065500D03*
X0236256Y0065500D03*
X0250006Y0061750D03*
X0255006Y0061750D03*
X0231256Y0075500D03*
X0226256Y0075500D03*
X0300006Y0054875D03*
X0337506Y0058625D03*
X0362506Y0040500D03*
X0416976Y0063374D03*
X0416976Y0071248D03*
X0416976Y0079122D03*
X0398788Y0085500D03*
X0392506Y0076750D03*
X0443756Y0017375D03*
X0148131Y0072375D03*
X0105631Y0072375D03*
X0039041Y0080559D03*
X0386256Y0183000D03*
D18*
X0393131Y0176125D01*
X0393131Y0162375D01*
X0428759Y0126747D01*
X0453443Y0127060D01*
X0392506Y0076750D02*
X0386756Y0082500D01*
X0370783Y0082500D01*
X0370744Y0082535D01*
X0369961Y0082500D01*
X0331881Y0082500D01*
X0329256Y0085625D01*
X0287006Y0085625D01*
X0282631Y0081250D01*
X0257506Y0081250D01*
X0256881Y0081125D01*
X0256256Y0080500D01*
X0258131Y0076750D02*
X0253756Y0076750D01*
X0248131Y0083313D01*
X0245599Y0083313D01*
X0169084Y0083195D01*
X0165851Y0086595D02*
X0162679Y0083423D01*
X0089331Y0083500D01*
X0088756Y0084125D01*
X0088756Y0084250D01*
X0088756Y0085500D01*
X0088756Y0087012D01*
X0087193Y0088575D01*
X0087193Y0090500D01*
X0087193Y0092533D01*
X0088756Y0094096D01*
X0088756Y0150500D01*
X0093356Y0152405D02*
X0093356Y0091750D01*
X0093356Y0089875D01*
X0091881Y0089875D01*
X0087193Y0090500D02*
X0087193Y0091696D01*
X0088756Y0086175D02*
X0088756Y0085500D01*
X0095631Y0086750D02*
X0096256Y0086125D01*
X0161961Y0086125D01*
X0166649Y0090812D01*
X0248632Y0090500D01*
X0249782Y0090500D01*
X0254157Y0086125D01*
X0276256Y0086125D01*
X0276881Y0086437D01*
X0280006Y0086437D01*
X0276306Y0086125D02*
X0276256Y0086125D01*
X0283568Y0079250D02*
X0287943Y0083625D01*
X0327381Y0083625D01*
X0330131Y0080500D01*
X0383756Y0080500D01*
X0397745Y0067136D01*
X0413214Y0067136D01*
X0416976Y0063374D01*
X0336256Y0089875D02*
X0253999Y0089798D01*
X0249857Y0093940D01*
X0249100Y0093940D01*
X0204693Y0093937D01*
X0230631Y0103000D02*
X0129381Y0103000D01*
X0096568Y0135500D01*
X0102506Y0139250D02*
X0126149Y0115607D01*
X0161363Y0115607D01*
X0166256Y0115500D02*
X0140006Y0141750D01*
X0110006Y0141750D01*
X0104381Y0132375D02*
X0131256Y0105500D01*
X0230006Y0105500D01*
X0245006Y0120500D01*
X0248131Y0120500D01*
X0247193Y0116125D02*
X0243756Y0116125D01*
X0230631Y0103000D01*
X0231884Y0101000D02*
X0099394Y0101000D01*
X0099394Y0099816D01*
X0102506Y0096125D02*
X0105381Y0099000D01*
X0246759Y0099000D01*
X0251315Y0103556D01*
X0251315Y0107941D01*
X0250006Y0109250D01*
X0248131Y0104875D02*
X0235759Y0104875D01*
X0231884Y0101000D01*
X0247818Y0097062D02*
X0255318Y0104562D01*
X0255318Y0141125D01*
X0254281Y0142163D01*
X0253343Y0143025D01*
X0257506Y0148313D02*
X0234068Y0148313D01*
X0226256Y0140500D01*
X0245631Y0139563D02*
X0216568Y0110500D01*
X0193756Y0110500D01*
X0237053Y0118625D02*
X0237053Y0125500D01*
X0257506Y0132779D02*
X0257506Y0148313D01*
X0267506Y0143000D02*
X0278756Y0131750D01*
X0275321Y0129875D02*
X0266726Y0138470D01*
X0270006Y0145500D02*
X0270006Y0146750D01*
X0270006Y0145500D02*
X0280006Y0135500D01*
X0281256Y0135500D01*
X0288131Y0134250D02*
X0289381Y0135500D01*
X0304381Y0135500D01*
X0307654Y0128000D02*
X0298756Y0128000D01*
X0307654Y0128000D02*
X0345154Y0165500D01*
X0301256Y0161068D02*
X0301256Y0155419D01*
X0301256Y0161068D02*
X0298872Y0163452D01*
X0298872Y0177884D01*
X0293756Y0182375D01*
X0065631Y0182375D01*
X0058756Y0175500D01*
X0081256Y0155500D02*
X0086256Y0160500D01*
X0088756Y0160500D01*
X0090661Y0155100D02*
X0093356Y0152405D01*
X0090661Y0155100D02*
X0086851Y0155100D01*
X0082251Y0150500D01*
X0078756Y0150500D01*
X0073756Y0153000D02*
X0076256Y0155500D01*
X0081256Y0155500D01*
X0073756Y0153000D02*
X0073756Y0090900D01*
X0084156Y0080500D01*
X0086256Y0080500D01*
X0164497Y0080653D01*
X0165851Y0086595D02*
X0167266Y0086595D01*
X0248865Y0086625D01*
X0258131Y0076750D02*
X0260631Y0079250D01*
X0283568Y0079250D01*
X0257506Y0074250D02*
X0256881Y0073183D01*
X0256881Y0068625D01*
X0255006Y0066750D01*
X0255006Y0061750D01*
X0250006Y0061750D02*
X0250006Y0073000D01*
X0250124Y0073000D01*
X0251256Y0074131D01*
X0245631Y0074250D02*
X0243756Y0072375D01*
X0243756Y0065500D01*
X0236256Y0065500D02*
X0236256Y0076750D01*
X0241817Y0076750D01*
X0241884Y0076817D01*
X0231256Y0075500D02*
X0226256Y0070500D01*
X0151256Y0070500D01*
X0146256Y0065500D01*
X0085006Y0065500D01*
X0047506Y0028000D01*
X0047506Y0016125D01*
X0046256Y0016125D01*
X0026256Y0016125D02*
X0066881Y0056125D01*
X0066881Y0125500D01*
X0056256Y0105500D02*
X0039041Y0105500D01*
X0039041Y0080559D01*
X0086256Y0075500D02*
X0088756Y0078000D01*
X0223756Y0078000D01*
X0226256Y0075500D01*
X0275722Y0101125D02*
X0279159Y0097687D01*
X0281256Y0100500D02*
X0278131Y0103312D01*
X0278131Y0111437D01*
X0268131Y0110187D02*
X0268131Y0101125D01*
X0275722Y0101125D01*
X0281256Y0100500D02*
X0287506Y0100500D01*
X0290006Y0098000D01*
X0291881Y0098000D01*
X0300631Y0116750D02*
X0313131Y0103625D01*
X0320943Y0105187D02*
X0320943Y0121750D01*
X0305631Y0121750D01*
X0332506Y0135500D02*
X0334832Y0135500D01*
X0286256Y0139250D02*
X0281881Y0139250D01*
X0275006Y0146750D01*
X0257506Y0132779D02*
X0264784Y0124875D01*
X0268131Y0121125D02*
X0272818Y0116437D01*
X0272818Y0105187D01*
X0271509Y0105500D01*
X0275631Y0128625D02*
X0275321Y0129875D01*
X0215395Y0161530D02*
X0215049Y0161184D01*
X0213687Y0159934D01*
X0213317Y0159564D01*
X0201736Y0159564D01*
X0201736Y0167548D01*
X0198783Y0170500D01*
X0138806Y0170500D01*
X0129610Y0160406D01*
X0114475Y0160406D01*
X0113756Y0161125D01*
X0109381Y0161125D01*
X0098756Y0150500D01*
X0098756Y0175500D02*
X0098781Y0175500D01*
X0093631Y0072375D02*
X0091756Y0070500D01*
X0093631Y0072375D02*
X0105631Y0072375D01*
X0148131Y0072375D01*
X0275154Y0025500D02*
X0275154Y0021602D01*
X0281256Y0015500D01*
X0341256Y0015500D01*
X0346256Y0020500D01*
X0307506Y0054875D02*
X0300006Y0054875D01*
X0307506Y0054875D02*
X0307506Y0058625D01*
D19*
X0216256Y0060500D03*
X0202506Y0058000D03*
X0300631Y0098937D03*
X0352506Y0101750D03*
X0366256Y0105500D03*
X0373756Y0111750D03*
X0376256Y0125500D03*
X0341256Y0125500D03*
X0296256Y0144250D03*
X0409068Y0111750D03*
X0453443Y0127060D03*
X0442132Y0047626D03*
X0436256Y0025500D03*
X0181256Y0110500D03*
X0171256Y0110500D03*
X0120631Y0169875D03*
X0132506Y0178000D03*
D20*
X0341256Y0125500D02*
X0341256Y0105500D01*
X0351256Y0094250D01*
X0431256Y0094250D01*
X0431256Y0025500D01*
X0436256Y0025500D01*
X0442132Y0047626D02*
X0442132Y0050500D01*
X0442132Y0099624D01*
X0441256Y0100500D01*
D21*
X0339916Y0133003D02*
X0335003Y0128090D01*
X0335003Y0113090D01*
X0321476Y0098937D01*
X0300631Y0098937D01*
X0297818Y0098937D01*
X0261256Y0135500D01*
X0261256Y0151750D01*
X0223673Y0151750D01*
X0218673Y0146750D01*
X0192506Y0146750D01*
X0181256Y0135500D01*
X0181256Y0110500D01*
X0171256Y0110500D02*
X0171256Y0142613D01*
X0180568Y0151925D01*
X0216318Y0151925D01*
X0221006Y0156613D01*
X0283033Y0156613D01*
X0296333Y0144250D01*
X0296256Y0144250D01*
X0339916Y0153003D02*
X0339916Y0133003D01*
X0339916Y0153003D02*
X0372745Y0153003D01*
X0386492Y0165500D01*
X0247594Y0025500D02*
X0216256Y0060500D01*
X0206256Y0053032D02*
X0202506Y0058000D01*
X0206256Y0053032D02*
X0206256Y0025500D01*
X0210358Y0025500D01*
X0217201Y0018657D01*
X0254531Y0018657D01*
X0261374Y0025500D01*
X0206256Y0025500D02*
X0194950Y0025500D01*
X0188106Y0033657D01*
X0182437Y0033657D01*
X0175594Y0025500D01*
X0171492Y0025500D01*
X0167391Y0025500D02*
X0160547Y0033657D01*
X0127319Y0033657D01*
X0120476Y0025500D01*
X0116374Y0025500D01*
X0114381Y0166125D02*
X0108131Y0166125D01*
X0098756Y0175500D01*
X0108756Y0175500D02*
X0111256Y0178000D01*
X0132506Y0178000D01*
X0120631Y0169875D02*
X0118131Y0169875D01*
X0114381Y0166125D01*
D22*
X0098781Y0175500D02*
X0091493Y0168213D01*
X0073968Y0168213D01*
X0066256Y0160500D01*
X0066881Y0125500D01*
X0070006Y0148938D02*
X0070006Y0155500D01*
X0075006Y0160500D01*
X0078756Y0160500D01*
X0215006Y0156750D02*
X0215389Y0156750D01*
X0218993Y0160333D01*
X0270464Y0160333D01*
X0276256Y0165500D01*
X0336256Y0089875D02*
X0336256Y0088937D01*
X0442132Y0050500D02*
X0442132Y0017375D01*
X0443756Y0017375D01*
X0362506Y0040500D02*
X0352506Y0040500D01*
X0352506Y0026750D01*
X0346256Y0020500D01*
D23*
X0413214Y0075010D02*
X0416976Y0071248D01*
X0413214Y0075010D02*
X0399493Y0075010D01*
X0389129Y0085375D01*
X0332506Y0085375D01*
X0330506Y0087875D01*
X0286256Y0087875D01*
X0281693Y0083313D01*
X0259381Y0083313D01*
X0258756Y0083938D01*
X0253443Y0083938D01*
X0250756Y0086625D01*
X0248865Y0086625D01*
X0256256Y0093000D02*
X0252506Y0097062D01*
X0247818Y0097062D01*
X0167818Y0097062D01*
X0162506Y0091750D01*
X0093356Y0091750D01*
X0245324Y0126437D02*
X0251881Y0133306D01*
X0251881Y0138625D01*
X0294381Y0131125D02*
X0304615Y0131125D01*
X0336942Y0163452D01*
X0336942Y0166186D01*
X0341256Y0170500D01*
X0353933Y0170500D01*
X0358933Y0165500D01*
X0332506Y0135500D02*
X0322134Y0125128D01*
X0306256Y0125128D01*
X0305693Y0125128D01*
X0301881Y0125128D01*
X0301881Y0124816D01*
X0271571Y0094436D02*
X0267570Y0098437D01*
X0255898Y0098437D01*
X0256256Y0093000D02*
X0270373Y0093000D01*
X0270998Y0092375D01*
X0338806Y0092375D01*
X0341618Y0088937D01*
X0395350Y0088937D01*
X0398788Y0085500D01*
X0404348Y0091125D02*
X0349381Y0091125D01*
X0346520Y0094611D01*
X0338806Y0094611D01*
X0271571Y0094436D01*
X0404348Y0091125D02*
X0416976Y0079122D01*
D24*
X0418658Y0099700D02*
X0372056Y0099700D01*
X0366256Y0105500D01*
X0373756Y0110500D02*
X0373756Y0111750D01*
X0373756Y0110500D02*
X0378756Y0105500D01*
X0401881Y0105500D01*
X0409068Y0111750D01*
X0438759Y0111750D01*
X0453443Y0127060D01*
X0485006Y0100500D02*
X0419458Y0100500D01*
X0418658Y0099700D01*
X0376256Y0125500D02*
X0353756Y0103000D01*
X0353756Y0101750D01*
X0352506Y0101750D01*
X0485006Y0100500D02*
X0484381Y0156912D01*
X0474668Y0166000D01*
X0428907Y0166000D01*
X0428407Y0165500D01*
X0400272Y0165500D01*
X0112272Y0025500D02*
X0105429Y0033657D01*
X0099760Y0033657D01*
X0092917Y0025500D01*
X0088815Y0025500D01*
X0112272Y0025500D02*
X0116374Y0025500D01*
X0167391Y0025500D02*
X0171492Y0025500D01*
D25*
X0296333Y0144250D02*
X0310124Y0144250D01*
X0331374Y0165500D01*
X0276256Y0165500D02*
X0260631Y0178000D01*
X0132506Y0178000D01*
D26*
X0011256Y0177375D03*
X0011256Y0020500D03*
X0481256Y0177375D03*
M02*
