%
M48
M72
T01C0.01969
T02C0.03543
T03C0.03937
T04C0.04000
T05C0.04724
T06C0.08000
T07C0.12500
%
T01
X26256Y16125
X46256Y16125
X91756Y70500
X86256Y75500
X86256Y80500
X88756Y84250
X95631Y86750
X91881Y89875
X102506Y96125
X99394Y99816
X56256Y105500
X66881Y125500
X96568Y135500
X102506Y139250
X110006Y141750
X104381Y132375
X70006Y148938
X66256Y160500
X113756Y161125
X215006Y156750
X215395Y161530
X253343Y143025
X251881Y138625
X245631Y139563
X266726Y138470
X267506Y143000
X270006Y146750
X275006Y146750
X286256Y139250
X288131Y134250
X294381Y131125
X298756Y128000
X301881Y124816
X305631Y121750
X300631Y116750
X278131Y111437
X268131Y110187
X271509Y105500
X279159Y97687
X291881Y98000
X313131Y103625
X320943Y105187
X336256Y88937
X280006Y86437
X256256Y80500
X245599Y83313
X248865Y86625
X256256Y93000
X255898Y98437
X248131Y104875
X250006Y109250
X247193Y116125
X248131Y120500
X237053Y118625
X237053Y125500
X245324Y126437
X264784Y124875
X268131Y121125
X275631Y128625
X278756Y131750
X281256Y135500
X304381Y135500
X334832Y135500
X301256Y155419
X226256Y140500
X166256Y115500
X161363Y115607
X193756Y110500
X204693Y93937
X241884Y76817
X245631Y74250
X251256Y74131
X256881Y73183
X243756Y65500
X236256Y65500
X250006Y61750
X255006Y61750
X231256Y75500
X226256Y75500
X300006Y54875
X337506Y58625
X362506Y40500
X416976Y63374
X416976Y71248
X416976Y79122
X398788Y85500
X392506Y76750
X443756Y17375
X148131Y72375
X105631Y72375
X39041Y80559
X386256Y183000
T02
X98756Y160500
X88756Y160500
X78756Y160500
X78756Y150500
X88756Y150500
X98756Y150500
T03
X120631Y169875
X132506Y178000
X171256Y110500
X181256Y110500
X296256Y144250
X341256Y125500
X376256Y125500
X373756Y111750
X366256Y105500
X352506Y101750
X300631Y98937
X216256Y60500
X202506Y58000
X409068Y111750
X453443Y127060
X442132Y47626
X436256Y25500
T04
X376256Y20500
X366256Y20500
X356256Y20500
X346256Y20500
X108756Y175500
X98756Y175500
X88756Y175500
X78756Y175500
X68756Y175500
X58756Y175500
T05
X127240Y165500
X141020Y165500
X154799Y165500
X168579Y165500
X182358Y165500
X196138Y165500
X209917Y165500
X223697Y165500
X237476Y165500
X251256Y165500
X276256Y165500
X290035Y165500
X303815Y165500
X317594Y165500
X331374Y165500
X345154Y165500
X358933Y165500
X372713Y165500
X386492Y165500
X400272Y165500
X330272Y25500
X316492Y25500
X302713Y25500
X288933Y25500
X275154Y25500
X261374Y25500
X247594Y25500
X233815Y25500
X220035Y25500
X206256Y25500
X185272Y25500
X171492Y25500
X157713Y25500
X143933Y25500
X130154Y25500
X116374Y25500
X102594Y25500
X88815Y25500
X75035Y25500
X61256Y25500
T06
X447318Y150500
X465318Y150500
T07
X481256Y177375
X11256Y177375
X11256Y20500
M30
