G75*
%MOIN*%
%OFA0B0*%
%FSLAX25Y25*%
%IPPOS*%
%LPD*%
%AMOC8*
5,1,8,0,0,1.08239X$1,22.5*
%
%ADD10R,0.10600X0.20600*%
%ADD11C,0.40600*%
%ADD12C,0.07000*%
%ADD13C,0.08000*%
%ADD14R,0.07687X0.07687*%
%ADD15C,0.07687*%
%ADD16R,0.16600X0.06600*%
%ADD17C,0.08600*%
%ADD18OC8,0.04169*%
%ADD19OC8,0.06506*%
%ADD20OC8,0.19350*%
D10*
X0277506Y0058625D03*
X0337506Y0058625D03*
D11*
X0307506Y0058625D03*
D12*
X0098756Y0150500D03*
X0088756Y0150500D03*
X0078756Y0150500D03*
X0078756Y0160500D03*
X0088756Y0160500D03*
X0098756Y0160500D03*
D13*
X0098756Y0175500D03*
X0108756Y0175500D03*
X0088756Y0175500D03*
X0078756Y0175500D03*
X0068756Y0175500D03*
X0058756Y0175500D03*
X0346256Y0020500D03*
X0356256Y0020500D03*
X0366256Y0020500D03*
X0376256Y0020500D03*
D14*
X0206256Y0025500D03*
X0061256Y0025500D03*
X0251256Y0165500D03*
X0276256Y0165500D03*
D15*
X0290035Y0165500D03*
X0303815Y0165500D03*
X0317594Y0165500D03*
X0331374Y0165500D03*
X0345154Y0165500D03*
X0358933Y0165500D03*
X0372713Y0165500D03*
X0386492Y0165500D03*
X0400272Y0165500D03*
X0237476Y0165500D03*
X0223697Y0165500D03*
X0209917Y0165500D03*
X0196138Y0165500D03*
X0182358Y0165500D03*
X0168579Y0165500D03*
X0154799Y0165500D03*
X0141020Y0165500D03*
X0127240Y0165500D03*
X0130154Y0025500D03*
X0116374Y0025500D03*
X0102594Y0025500D03*
X0088815Y0025500D03*
X0075035Y0025500D03*
X0143933Y0025500D03*
X0157713Y0025500D03*
X0171492Y0025500D03*
X0185272Y0025500D03*
X0220035Y0025500D03*
X0233815Y0025500D03*
X0247594Y0025500D03*
X0261374Y0025500D03*
X0275154Y0025500D03*
X0288933Y0025500D03*
X0302713Y0025500D03*
X0316492Y0025500D03*
X0330272Y0025500D03*
D16*
X0479506Y0020500D03*
X0479506Y0040500D03*
D17*
X0465318Y0150500D03*
X0447318Y0150500D03*
D18*
X0026256Y0016125D03*
X0046256Y0016125D03*
X0091756Y0070500D03*
X0086256Y0075500D03*
X0086256Y0080500D03*
X0088756Y0084250D03*
X0095631Y0086750D03*
X0091881Y0089875D03*
X0102506Y0096125D03*
X0099394Y0099816D03*
X0056256Y0105500D03*
X0066881Y0125500D03*
X0096568Y0135500D03*
X0102506Y0139250D03*
X0110006Y0141750D03*
X0104381Y0132375D03*
X0070006Y0148938D03*
X0066256Y0160500D03*
X0113756Y0161125D03*
X0215006Y0156750D03*
X0215395Y0161530D03*
X0253343Y0143025D03*
X0251881Y0138625D03*
X0245631Y0139563D03*
X0266726Y0138470D03*
X0267506Y0143000D03*
X0270006Y0146750D03*
X0275006Y0146750D03*
X0286256Y0139250D03*
X0288131Y0134250D03*
X0294381Y0131125D03*
X0298756Y0128000D03*
X0301881Y0124816D03*
X0305631Y0121750D03*
X0300631Y0116750D03*
X0278131Y0111437D03*
X0268131Y0110187D03*
X0271509Y0105500D03*
X0279159Y0097687D03*
X0291881Y0098000D03*
X0313131Y0103625D03*
X0320943Y0105187D03*
X0336256Y0088937D03*
X0280006Y0086437D03*
X0256256Y0080500D03*
X0245599Y0083313D03*
X0248865Y0086625D03*
X0256256Y0093000D03*
X0255898Y0098437D03*
X0248131Y0104875D03*
X0250006Y0109250D03*
X0247193Y0116125D03*
X0248131Y0120500D03*
X0237053Y0118625D03*
X0237053Y0125500D03*
X0245324Y0126437D03*
X0264784Y0124875D03*
X0268131Y0121125D03*
X0275631Y0128625D03*
X0278756Y0131750D03*
X0281256Y0135500D03*
X0304381Y0135500D03*
X0334832Y0135500D03*
X0301256Y0155419D03*
X0226256Y0140500D03*
X0166256Y0115500D03*
X0161363Y0115607D03*
X0193756Y0110500D03*
X0204693Y0093937D03*
X0241884Y0076817D03*
X0245631Y0074250D03*
X0251256Y0074131D03*
X0256881Y0073183D03*
X0243756Y0065500D03*
X0236256Y0065500D03*
X0250006Y0061750D03*
X0255006Y0061750D03*
X0231256Y0075500D03*
X0226256Y0075500D03*
X0300006Y0054875D03*
X0337506Y0058625D03*
X0362506Y0040500D03*
X0416976Y0063374D03*
X0416976Y0071248D03*
X0416976Y0079122D03*
X0398788Y0085500D03*
X0392506Y0076750D03*
X0443756Y0017375D03*
X0148131Y0072375D03*
X0105631Y0072375D03*
X0039041Y0080559D03*
X0386256Y0183000D03*
D19*
X0296256Y0144250D03*
X0341256Y0125500D03*
X0376256Y0125500D03*
X0373756Y0111750D03*
X0366256Y0105500D03*
X0352506Y0101750D03*
X0300631Y0098937D03*
X0216256Y0060500D03*
X0202506Y0058000D03*
X0181256Y0110500D03*
X0171256Y0110500D03*
X0120631Y0169875D03*
X0132506Y0178000D03*
X0409068Y0111750D03*
X0453443Y0127060D03*
X0442132Y0047626D03*
X0436256Y0025500D03*
D20*
X0481256Y0177375D03*
X0011256Y0177375D03*
X0011256Y0020500D03*
M02*
